<?xml version="1.0" encoding="UTF-8" standalone="no"?>
<!-- Generator: Adobe Illustrator 27.5.0, SVG Export Plug-In . SVG Version: 6.00 Build 0)  -->

<svg
   version="1.1"
   id="Layer_1"
   x="0px"
   y="0px"
   viewBox="0 0 172.94535 59.999999"
   xml:space="preserve"
   width="172.94534"
   height="60"
   sodipodi:docname="zopa-logo-light-small.svg"
   inkscape:version="1.2.2 (b0a84865, 2022-12-01)"
   xmlns:inkscape="http://www.inkscape.org/namespaces/inkscape"
   xmlns:sodipodi="http://sodipodi.sourceforge.net/DTD/sodipodi-0.dtd"
   xmlns="http://www.w3.org/2000/svg"
   xmlns:svg="http://www.w3.org/2000/svg"><sodipodi:namedview
   id="namedview1083"
   pagecolor="#ffffff"
   bordercolor="#000000"
   borderopacity="0.25"
   inkscape:showpageshadow="2"
   inkscape:pageopacity="0.0"
   inkscape:pagecheckerboard="0"
   inkscape:deskcolor="#d1d1d1"
   showgrid="false"
   inkscape:zoom="3.200209"
   inkscape:cx="141.39701"
   inkscape:cy="31.716678"
   inkscape:window-width="1920"
   inkscape:window-height="1027"
   inkscape:window-x="1496"
   inkscape:window-y="25"
   inkscape:window-maximized="1"
   inkscape:current-layer="Layer_1" /><defs
   id="defs623" />
<style
   type="text/css"
   id="style316">
	.st0{fill-rule:evenodd;clip-rule:evenodd;fill:#3C3C3A;}
	.st1{fill-rule:evenodd;clip-rule:evenodd;fill:#D8AC28;}
	.st2{fill:#383838;}
	.st3{font-family:'FuturaBT-Light';}
	.st4{font-size:71.8537px;}
	.st5{fill:#3C3C3A;}
	.st6{font-size:24px;}
	.st7{fill-rule:evenodd;clip-rule:evenodd;fill:#FFFFFF;}
	.st8{fill:#FFFFFF;}
	.st9{fill-rule:evenodd;clip-rule:evenodd;fill:#D3D3D3;}
	.st10{fill:#1C1C1C;}
	.st11{font-size:43px;}
	.st12{fill:#D8AC28;}
	.st13{font-size:16.9308px;}
</style>












<g
   id="g881-6-8"
   transform="matrix(0.56074768,0,0,0.56074768,-82.14454,-28.51588)"><g
     id="g870-0-8"><g
       aria-label="ZOPA"
       transform="scale(0.9923709,1.0076878)"
       id="text328-3-3"
       style="font-size:71.8537px;font-family:Futura;-inkscape-font-specification:Futura;fill:#ffffff;stroke-width:0.992371"
       class="st2 st3 st4"><path
         d="m 276.52784,113.39713 28.87481,-45.785679 h -23.43666 v -5.578486 h 33.78668 l -28.59413,45.540085 h 27.43633 v 5.82408 z"
         id="path1968" /><path
         d="m 348.80256,109.01153 q 4.21018,0 7.99934,-1.57882 3.82424,-1.6139 6.87662,-4.66628 3.0173,-3.01729 4.59611,-6.841534 1.57882,-3.824245 1.57882,-8.104592 0,-4.315433 -1.6139,-8.209847 -1.57882,-3.894414 -4.56103,-6.876623 -3.01729,-3.017294 -6.84154,-4.596111 -3.78916,-1.578817 -8.03442,-1.578817 -4.28035,0 -8.10459,1.578817 -3.82425,1.578817 -6.77137,4.596111 -3.01729,3.052378 -4.59611,6.911708 -1.57882,3.859329 -1.57882,8.174762 0,4.280347 1.54373,8.069507 1.57882,3.78916 4.6312,6.876619 3.08746,3.08747 6.84154,4.66628 3.78916,1.57882 8.03442,1.57882 z m 27.43633,-21.191226 q 0,5.508315 -2.03492,10.385104 -2.03492,4.876792 -5.92934,8.665952 -3.89441,3.78916 -8.98171,5.85916 -5.05221,2.03492 -10.49036,2.03492 -5.43814,0 -10.49036,-2.03492 -5.01713,-2.07 -8.91154,-5.85916 -3.9295,-3.82425 -5.9995,-8.701036 -2.03492,-4.876789 -2.03492,-10.35002 0,-5.508316 2.03492,-10.385105 2.07,-4.911874 5.9995,-8.736119 3.85933,-3.754075 8.91154,-5.788994 5.05222,-2.034919 10.49036,-2.034919 5.47323,0 10.52545,2.034919 5.08729,2.034919 8.94662,5.788994 3.89442,3.78916 5.92934,8.701034 2.03492,4.876789 2.03492,10.42019 z"
         id="path1970" /><path
         d="m 392.20247,90.34641 v 23.05072 h -5.96442 V 62.032965 h 10.77104 q 5.64866,0 8.3151,0.596442 2.66645,0.596442 4.6312,1.96475 2.45593,1.754241 3.82424,4.806619 1.40339,3.052379 1.40339,6.771369 0,3.718991 -1.40339,6.771369 -1.36831,3.052379 -3.82424,4.80662 -1.96475,1.403393 -4.6312,1.999834 -2.63136,0.596442 -8.3151,0.596442 h -1.71916 z m 0,-5.5434 h 3.08746 q 7.859,0 10.56053,-1.824411 2.73662,-1.859495 2.73662,-6.455605 0,-4.911874 -2.80679,-6.911709 -2.7717,-1.999834 -10.49036,-1.999834 h -3.08746 z"
         id="path1972" /><path
         d="m 435.04102,73.5057 -8.17476,18.910714 h 16.34952 z m 0,-13.507654 23.36649,53.399084 h -6.63103 l -6.66612,-15.753079 h -20.06851 l -6.66611,15.753079 h -6.63103 z"
         id="path1974" /></g><g
       aria-label="Procure Efficiently"
       id="text330-2-5"
       style="font-size:24px;font-family:FuturaBT-Light;fill:#ffffff"
       class="st5 st3 st6"><path
         d="m 275.59558,134.75928 v 7.69922 h -1.99219 v -17.15625 h 3.59766 q 1.88672,0 2.77734,0.19921 0.89063,0.19922 1.54688,0.65625 0.82031,0.58594 1.27734,1.60547 0.46875,1.01953 0.46875,2.26172 0,1.24219 -0.46875,2.26172 -0.45703,1.01953 -1.27734,1.60547 -0.65625,0.46875 -1.54688,0.66797 -0.8789,0.19922 -2.77734,0.19922 h -0.57422 z m 0,-1.85157 h 1.03125 q 2.625,0 3.52734,-0.60937 0.91407,-0.62109 0.91407,-2.15625 0,-1.64063 -0.9375,-2.30859 -0.92578,-0.66797 -3.50391,-0.66797 h -1.03125 z"
         style="font-family:Futura;-inkscape-font-specification:Futura"
         id="path1977" /><path
         d="m 285.20496,142.4585 v -10.72266 h 1.6289 v 2.22656 q 0.73828,-1.39453 1.57031,-1.99219 0.83204,-0.59765 2.02735,-0.59765 0.32812,0 0.63281,0.0586 0.30469,0.0469 0.60938,0.15235 l -0.60938,1.65234 q -0.31641,-0.10547 -0.59766,-0.15234 -0.28125,-0.0586 -0.53906,-0.0586 -1.45312,0 -2.17969,1.05469 -0.72656,1.04297 -0.72656,3.15234 v 5.22657 z"
         style="font-family:Futura;-inkscape-font-specification:Futura"
         id="path1979" /><path
         d="m 294.68542,137.12646 q 0,1.69922 1.13672,2.88282 1.13672,1.17187 2.75391,1.17187 1.60547,0 2.73047,-1.17187 1.125,-1.1836 1.125,-2.88282 0,-1.69921 -1.125,-2.87109 -1.125,-1.18359 -2.73047,-1.18359 -1.62891,0 -2.76563,1.18359 -1.125,1.17188 -1.125,2.87109 z m -1.94531,0 q 0,-1.18359 0.4336,-2.22656 0.43359,-1.05469 1.26562,-1.875 0.83203,-0.82031 1.88672,-1.24219 1.05469,-0.43359 2.25,-0.43359 1.17187,0 2.21484,0.43359 1.05469,0.4336 1.91016,1.26563 0.83203,0.80859 1.26562,1.86328 0.4336,1.04297 0.4336,2.21484 0,1.17188 -0.4336,2.21485 -0.43359,1.03125 -1.26562,1.83984 -0.85547,0.84375 -1.92188,1.28906 -1.05468,0.44532 -2.20312,0.44532 -1.18359,0 -2.25,-0.44532 -1.05469,-0.43359 -1.88672,-1.2539 -0.83203,-0.84375 -1.26562,-1.875 -0.4336,-1.03125 -0.4336,-2.21485 z"
         style="font-family:Futura;-inkscape-font-specification:Futura"
         id="path1981" /><path
         d="m 315.48621,139.91553 v 2.13281 q -0.72657,0.43359 -1.64063,0.64453 -0.90234,0.22266 -1.95703,0.22266 -2.48438,0 -4.00781,-1.57032 -1.51172,-1.58203 -1.51172,-4.14843 0,-2.57813 1.57031,-4.20703 1.57031,-1.64063 4.01953,-1.64063 0.89063,0 1.73438,0.1875 0.85547,0.1875 1.60547,0.55078 v 1.96875 q -0.70313,-0.45703 -1.45313,-0.6914 -0.75,-0.2461 -1.52344,-0.2461 -1.80468,0 -2.89453,1.13672 -1.08984,1.125 -1.08984,3 0,1.65234 1.08984,2.76563 1.10156,1.11328 2.75391,1.11328 0.83203,0 1.6289,-0.29297 0.79688,-0.29297 1.67579,-0.92578 z"
         style="font-family:Futura;-inkscape-font-specification:Futura"
         id="path1983" /><path
         d="m 319.76355,131.73584 v 5.27344 q 0,2.30859 0.67969,3.23437 0.6914,0.91406 2.32031,0.91406 1.62891,0 2.29687,-0.90234 0.67969,-0.91406 0.67969,-3.24609 v -5.27344 h 1.875 v 6.25781 q 0,2.42578 -1.24219,3.67969 -1.24218,1.24219 -3.65625,1.24219 -2.39062,0 -3.63281,-1.25391 -1.24219,-1.25391 -1.24219,-3.66797 v -6.25781 z"
         style="font-family:Futura;-inkscape-font-specification:Futura"
         id="path1985" /><path
         d="m 331.18933,142.4585 v -10.72266 h 1.62891 v 2.22656 q 0.73828,-1.39453 1.57031,-1.99219 0.83203,-0.59765 2.02734,-0.59765 0.32813,0 0.63282,0.0586 0.30468,0.0469 0.60937,0.15235 l -0.60937,1.65234 q -0.31641,-0.10547 -0.59766,-0.15234 -0.28125,-0.0586 -0.53906,-0.0586 -1.45313,0 -2.17969,1.05469 -0.72656,1.04297 -0.72656,3.15234 v 5.22657 z"
         style="font-family:Futura;-inkscape-font-specification:Futura"
         id="path1987" /><path
         d="m 347.19714,135.88428 q -0.0937,-1.41797 -0.94922,-2.17969 -0.84375,-0.77344 -2.32031,-0.77344 -1.33594,0 -2.22656,0.8086 -0.89063,0.79687 -1.03125,2.14453 z m 1.96875,1.48828 h -8.49609 v 0.16406 q 0,1.72266 0.98437,2.78906 0.98438,1.05469 2.56641,1.05469 1.07813,0 1.94531,-0.57422 0.86719,-0.58594 1.53516,-1.75781 l 1.39453,0.9375 q -0.80859,1.45312 -2.0625,2.19141 -1.25391,0.73828 -2.90625,0.73828 -2.44922,0 -3.96094,-1.61719 -1.51172,-1.61719 -1.51172,-4.24219 0,-2.51953 1.5,-4.125 1.5,-1.60547 3.85547,-1.60547 2.37891,0 3.76172,1.52344 1.39453,1.52344 1.39453,4.16016 z"
         style="font-family:Futura;-inkscape-font-specification:Futura"
         id="path1989" /><path
         d="m 359.19714,142.4585 v -17.15625 h 9.04688 v 1.86328 h -7.00781 v 4.92187 h 7.00781 v 1.89844 h -7.00781 v 6.57422 h 7.00781 v 1.89844 z"
         style="font-family:Futura;-inkscape-font-specification:Futura"
         id="path1991" /><path
         d="m 371.99402,142.4585 v -9.21094 h -2.0625 v -1.51172 h 2.0625 v -3.10547 q 0,-2.67187 0.66797,-3.60937 0.67968,-0.94922 2.42578,-0.94922 0.43359,0 0.82031,0.0586 0.39844,0.0586 0.76172,0.1875 v 1.89844 q -0.35156,-0.19922 -0.71484,-0.29297 -0.35157,-0.0937 -0.72657,-0.0937 -0.80859,0 -1.11328,0.51562 -0.30469,0.51563 -0.30469,2.53125 v 2.85938 h 2.85938 v 1.51172 h -2.8125 v 9.21094 z"
         style="font-family:Futura;-inkscape-font-specification:Futura"
         id="path1993" /><path
         d="m 378.93152,142.4585 v -9.21094 h -2.0625 v -1.51172 h 2.0625 v -3.10547 q 0,-2.67187 0.66797,-3.60937 0.67968,-0.94922 2.42578,-0.94922 0.43359,0 0.82031,0.0586 0.39844,0.0586 0.76172,0.1875 v 1.89844 q -0.35156,-0.19922 -0.71484,-0.29297 -0.35157,-0.0937 -0.72657,-0.0937 -0.80859,0 -1.11328,0.51562 -0.30469,0.51563 -0.30469,2.53125 v 2.85938 h 2.85938 v 1.51172 h -2.8125 v 9.21094 z"
         style="font-family:Futura;-inkscape-font-specification:Futura"
         id="path1995" /><path
         d="m 385.04871,126.56787 q 0,-0.55078 0.38671,-0.9375 0.39844,-0.39844 0.96094,-0.39844 0.55078,0 0.9375,0.39844 0.39844,0.39844 0.39844,0.96094 0,0.55078 -0.38672,0.9375 -0.38672,0.38672 -0.94922,0.38672 -0.5625,0 -0.96094,-0.38672 -0.38671,-0.38672 -0.38671,-0.96094 z m 0.43359,15.89063 v -10.72266 h 1.85156 v 10.72266 z"
         style="font-family:Futura;-inkscape-font-specification:Futura"
         id="path1997" /><path
         d="m 399.42761,139.91553 v 2.13281 q -0.72656,0.43359 -1.64062,0.64453 -0.90235,0.22266 -1.95703,0.22266 -2.48438,0 -4.00782,-1.57032 -1.51172,-1.58203 -1.51172,-4.14843 0,-2.57813 1.57032,-4.20703 1.57031,-1.64063 4.01953,-1.64063 0.89062,0 1.73437,0.1875 0.85547,0.1875 1.60547,0.55078 v 1.96875 q -0.70312,-0.45703 -1.45312,-0.6914 -0.75,-0.2461 -1.52344,-0.2461 -1.80469,0 -2.89453,1.13672 -1.08985,1.125 -1.08985,3 0,1.65234 1.08985,2.76563 1.10156,1.11328 2.7539,1.11328 0.83204,0 1.62891,-0.29297 0.79688,-0.29297 1.67578,-0.92578 z"
         style="font-family:Futura;-inkscape-font-specification:Futura"
         id="path1999" /><path
         d="m 401.64246,126.56787 q 0,-0.55078 0.38671,-0.9375 0.39844,-0.39844 0.96094,-0.39844 0.55078,0 0.9375,0.39844 0.39844,0.39844 0.39844,0.96094 0,0.55078 -0.38672,0.9375 -0.38672,0.38672 -0.94922,0.38672 -0.5625,0 -0.96094,-0.38672 -0.38671,-0.38672 -0.38671,-0.96094 z m 0.43359,15.89063 v -10.72266 h 1.85156 v 10.72266 z"
         style="font-family:Futura;-inkscape-font-specification:Futura"
         id="path2001" /><path
         d="m 415.40027,135.88428 q -0.0937,-1.41797 -0.94922,-2.17969 -0.84375,-0.77344 -2.32031,-0.77344 -1.33594,0 -2.22657,0.8086 -0.89062,0.79687 -1.03125,2.14453 z m 1.96875,1.48828 h -8.4961 v 0.16406 q 0,1.72266 0.98438,2.78906 0.98437,1.05469 2.56641,1.05469 1.07812,0 1.94531,-0.57422 0.86719,-0.58594 1.53515,-1.75781 l 1.39454,0.9375 q -0.8086,1.45312 -2.0625,2.19141 -1.25391,0.73828 -2.90625,0.73828 -2.44922,0 -3.96094,-1.61719 -1.51172,-1.61719 -1.51172,-4.24219 0,-2.51953 1.5,-4.125 1.5,-1.60547 3.85547,-1.60547 2.3789,0 3.76172,1.52344 1.39453,1.52344 1.39453,4.16016 z"
         style="font-family:Futura;-inkscape-font-specification:Futura"
         id="path2003" /><path
         d="m 420.13464,142.4585 v -10.72266 h 1.79297 v 1.65234 q 0.69141,-1.03125 1.66406,-1.53515 0.97266,-0.50391 2.25,-0.50391 1.89844,0 2.96485,1.00781 1.0664,1.00782 1.0664,2.80078 v 7.30079 h -1.875 v -6.31641 q 0,-1.62891 -0.6914,-2.41406 -0.67969,-0.79688 -2.10938,-0.79688 -0.82031,0 -1.5,0.30469 -0.66797,0.29297 -1.11328,0.84375 -0.33984,0.42187 -0.49219,0.96094 -0.14062,0.53906 -0.14062,1.875 v 5.54297 z"
         style="font-family:Futura;-inkscape-font-specification:Futura"
         id="path2005" /><path
         d="m 433.78699,133.24756 h -1.96875 v -1.51172 h 1.96875 v -4.32422 h 1.875 v 4.32422 h 1.96875 v 1.51172 h -1.96875 v 9.21094 h -1.875 z"
         style="font-family:Futura;-inkscape-font-specification:Futura"
         id="path2007" /><path
         d="m 439.81042,142.4585 v -18.16407 h 1.875 v 18.16407 z"
         style="font-family:Futura;-inkscape-font-specification:Futura"
         id="path2009" /><path
         d="m 445.09558,147.68506 2.90625,-6.28125 -4.20703,-9.66797 h 2.12109 l 3.11719,7.69922 3.30469,-7.69922 h 2.01562 l -7.19531,15.94922 z"
         style="font-family:Futura;-inkscape-font-specification:Futura"
         id="path2011" /></g></g><g
     id="g142-9-2"
     transform="matrix(0.22809635,0,0,0.22809635,143.54865,47.340634)">
	<path
   class="st0"
   d="m 66.9,346.8 c -0.1,1.3 -0.2,2.7 -0.2,4 0.1,12.4 5.2,23.6 13.4,31.8 8.2,8.2 19.5,13.3 31.8,13.4 1.5,0 2.9,-0.1 4.4,-0.2 -0.1,-1.5 -0.2,-2.9 -0.2,-4.4 v -11 c -8.3,-2.3 -15.5,-6.7 -21.4,-12.5 -5.8,-5.8 -10.1,-13.1 -12.5,-21.4 h -11 c -1.3,0.1 -2.8,0.2 -4.3,0.3 m 10.6,89 C 65,433.2 53.6,426.9 44.8,418 35.9,409.1 29.6,397.8 27,385.3 c -0.3,2 -0.4,4 -0.4,6.1 v 44.8 h 44.8 c 2.1,0 4.1,-0.1 6.1,-0.4 z m 64.6,-146.1 c -2,1.1 -3.8,2.4 -5.4,4 -3.7,3.7 -6.1,8.6 -6.6,14 l -0.1,-0.1 c 0,3 -0.1,6 0,9.1 v 29.8 44.8 c 0,6.6 1.4,12.9 4,18.5 2.2,4.9 5.4,9.3 9.1,13.1 8.1,8.1 19.3,13.2 31.6,13.2 12.3,0 23.5,-5 31.6,-13.2 17.6,-17.6 17.6,-45.7 0,-63.3 -8.1,-8.1 -19.3,-13.2 -31.6,-13.2 h -21.9 -9.1 v -13.8 h 9.1 c 0.7,0 1.5,0 2.2,-0.1 h 0.1 0.1 0.2 0.1 0.2 v 0 h 0.2 v 0 h 0.2 v 0 h 0.2 0.1 0.2 0.1 0.2 0.1 0.1 0.2 0.1 0.2 0.1 0.2 v 0 l 0.2,-0.1 v 0 l 0.2,-0.1 v 0 l 0.2,-0.1 h 0.1 0.2 0.1 0.1 l 0.2,-0.1 h 0.2 0.1 l 0.2,-0.1 v 0 l 0.2,-0.1 v 0 l 0.2,-0.1 v 0 l 0.2,-0.1 h 0.1 l 0.2,-0.1 h 0.1 l 0.1,-0.1 h 0.1 0.1 l 0.1,-0.1 h 0.1 l 0.2,-0.1 h 0.1 l 0.2,-0.1 v 0 l 0.2,-0.1 v 0 l 0.2,-0.1 v 0 l 0.2,-0.1 h 0.1 l 0.2,-0.1 h 0.1 l 0.1,-0.1 0.1,-0.1 h 0.1 l 0.2,-0.1 h 0.1 l 0.2,-0.1 v 0 l 0.2,-0.1 v 0 l 0.2,-0.1 v 0 l 0.2,-0.1 v 0 l 0.2,-0.1 h 0.1 l 0.1,-0.1 0.1,-0.1 0.1,-0.1 0.1,-0.1 0.1,-0.1 0.2,-0.1 v 0 l 0.2,-0.1 v 0 l 0.2,-0.1 v 0 l 0.2,-0.1 v 0 l 0.2,-0.1 h 0.1 l 0.1,-0.1 0.1,-0.1 0.1,-0.1 0.1,-0.1 0.1,-0.1 0.1,-0.1 h 0.1 l 0.2,-0.1 v 0 l 0.2,-0.1 v 0 l 0.2,-0.2 v 0 l 0.2,-0.1 v 0 l 0.1,-0.1 0.1,-0.1 0.1,-0.1 0.1,-0.1 0.1,-0.1 0.1,-0.1 0.1,-0.1 0.1,-0.1 v 0 l 0.2,-0.1 v 0 l 0.2,-0.2 c 4.2,-4.2 6.7,-9.9 6.7,-16.2 0,-1 -0.1,-2 -0.2,-3 v -0.2 -0.2 -0.1 -0.2 -0.2 -0.1 -0.1 -0.2 -0.1 -0.1 -0.2 -0.2 0 l -0.1,-0.2 -0.1,-0.2 v 0 l -0.1,-0.5 v -0.1 l -0.1,-0.2 -0.1,-0.2 v -0.1 -0.1 l -0.1,-0.2 v -0.1 -0.1 l -0.1,-0.4 v 0 0 l -0.2,-0.4 v 0 l -0.2,-0.4 v -0.1 l -0.2,-0.4 v -0.1 l -0.2,-0.5 v -0.1 l -0.1,-0.2 -0.1,-0.2 v 0 l -0.1,-0.2 -0.1,-0.2 v 0 l -0.2,-0.4 V 300 l -0.1,-0.1 -0.1,-0.2 -0.1,-0.1 -0.1,-0.1 -0.1,-0.2 -0.1,-0.1 v -0.1 l -0.1,-0.2 -0.1,-0.2 -0.1,-0.2 -0.1,-0.2 v 0 l -0.1,-0.2 -0.1,-0.2 v -0.1 0 l -0.2,-0.3 -0.1,-0.1 -0.1,-0.1 -0.2,-0.3 v -0.1 l -0.3,-0.3 v 0 0 0 l -0.3,-0.3 v 0 l -0.3,-0.3 v -0.1 0 l -0.3,-0.4 -0.1,-0.1 -0.3,-0.3 v 0 l -0.3,-0.3 v 0 c -3.7,-3.7 -8.6,-6.1 -14,-6.7 v 0 0 0 h -0.1 -0.3 v 0 0 0 0 0 h -0.2 v 0 0 0 H 154 v 0 0 0 0 h -0.1 v 0 h -0.1 v 0 h -0.1 v 0 0 0 0 0 0 0 0 0 h -0.1 v 0 0 0 h -0.2 -0.1 -0.1 -0.2 v 0 h -0.1 -0.1 v 0 h -0.2 -0.1 -0.1 -0.2 v 0 h -0.2 -0.1 -0.1 -0.2 -0.1 -0.2 v 0 h -0.2 -0.1 -0.3 v 0 h -0.2 -0.1 v 0 h -0.2 -0.1 -0.1 -0.2 v 0 h -0.2 -0.1 -0.1 -0.2 v 0 h -0.1 -0.1 v 0 h -0.2 -0.1 -0.1 -0.2 v 0 h -0.2 -0.1 -0.1 -0.2 v 0 h -0.1 -0.1 v 0 h -0.2 -0.1 -0.1 -0.2 v 0 h -0.2 -0.1 -0.1 -0.2 -0.1 -0.1 -0.2 v 0 l -0.5,0.2 v 0 l -0.3,0.1 v 0 l -0.2,0.1 h -0.1 -0.1 l -0.2,0.1 v 0 l -0.5,0.2 H 144 l -0.1,0.1 v 0 l -0.2,0.1 h -0.1 l -0.2,0.1 v 0 l -0.1,0.1 -0.1,0.1 v 0 l -0.2,0.1 v 0 l -0.2,0.1 v 0 z m 15.4,-16.3 c 0.2,-7.9 -0.6,-15.9 -2.4,-23.6 -1.9,-8.2 -5,-16 -9.1,-23.4 -2,-3.5 -6.5,-4.8 -10,-2.8 -3.5,2 -4.8,6.5 -2.8,10 3.5,6.2 6,12.8 7.6,19.6 1.6,6.8 2.3,13.9 2,20.9 l -0.6,0.6 c -3.8,1.2 -9.1,4.1 -12.8,6.8 -1.5,-12.4 -5.6,-24 -16.5,-35 -10.6,-10.6 -25.3,-17.2 -41.4,-17.2 -16.1,0 -30.8,6.6 -41.4,17.2 -10.6,10.6 -17.2,25.3 -17.2,41.4 0,16.1 6.6,30.8 17.2,41.4 4.1,4.1 8.8,7.6 13.9,10.3 -5.1,2.7 -9.8,6.2 -13.9,10.3 -10.6,10.6 -17.2,25.3 -17.2,41.4 v 51.7 6.9 h 6.9 51.7 c 11.4,0 22,-3.3 31,-8.9 3.8,-2.4 7.3,-5.2 10.4,-8.3 0.5,-0.5 1,-1.1 1.6,-1.6 -1.4,-1.8 -2.7,-3.7 -3.8,-5.7 -0.4,-0.7 -0.8,-1.5 -1.2,-2.2 -0.8,-1.6 -1.4,-2.8 -2.1,-4.4 -0.1,0.1 -0.7,0.3 -0.9,0.4 -5.7,2.4 -12,3.6 -18.6,3.4 -12.7,-0.4 -24.4,-5.9 -33,-14.6 -8.6,-8.6 -14.2,-20.3 -14.6,-33 -0.2,-6.7 1.1,-13.1 3.5,-18.8 2.9,-2.3 6,-4.2 9.3,-5.7 0,0 0,0.1 0,0.1 0.1,16.2 6.8,31 17.5,41.7 10.7,10.7 25.5,17.4 41.7,17.5 2.4,0 4.7,-0.1 7.1,-0.4 1.1,3.3 2.4,6.4 4,9.4 0.4,0.7 0.8,1.5 1.2,2.2 2.5,4.3 5.6,8.2 9.1,11.7 10.6,10.6 25.3,17.2 41.4,17.2 16.1,0 30.8,-6.6 41.4,-17.2 23,-23 23,-59.9 0,-82.8 -9.2,-9.2 -21.4,-15.4 -35,-16.9 l 0.4,-0.5 v -0.1 l 0.1,-0.1 v -0.1 l 0.1,-0.1 0.1,-0.1 0.1,-0.1 0.1,-0.1 0.1,-0.1 0.1,-0.1 0.1,-0.1 0.1,-0.1 0.1,-0.1 0.1,-0.1 0.1,-0.1 0.1,-0.1 v -0.1 l 0.1,-0.1 v -0.1 l 0.1,-0.1 v 0 l 0.1,-0.1 v 0 l 0.1,-0.1 v 0 l 0.1,-0.1 v 0 l 0.1,-0.2 v 0 l 0.1,-0.2 v 0 l 0.1,-0.2 v 0 l 0.1,-0.2 v 0 l 0.1,-0.2 v 0 l 0.1,-0.2 v 0 l 0.1,-0.2 v 0 l 0.1,-0.2 v 0 l 0.1,-0.1 v 0 l 0.1,-0.1 v 0 l 0.1,-0.1 v -0.1 l 0.1,-0.1 v -0.1 L 185,328 v -0.1 l 0.1,-0.1 v -0.1 l 0.1,-0.1 0.1,-0.1 v -0.1 l 0.1,-0.1 v -0.1 l 0.1,-0.1 V 327 l 0.1,-0.1 v -0.1 l 0.1,-0.1 v -0.1 l 0.1,-0.1 v 0 l 0.1,-0.1 v 0 l 0.1,-0.2 v 0 l 0.1,-0.2 v 0 l 0.1,-0.2 v 0 l 0.1,-0.2 v 0 l 0.1,-0.2 v 0 l 0.1,-0.2 v 0 l 0.1,-0.2 v 0 l 0.1,-0.2 v 0 l 0.1,-0.2 v 0 l 0.1,-0.2 v 0 l 0.1,-0.1 v -0.1 l 0.1,-0.1 V 324 l 0.1,-0.1 v -0.1 l 0.1,-0.1 v -0.1 l 0.1,-0.1 v -0.1 -0.1 -0.1 -0.1 -0.1 -0.1 -0.1 -0.1 -0.1 -0.1 -0.1 -0.1 -0.1 -0.1 l 0.1,-0.1 v 0 l 0.1,-0.2 v 0 l 0.1,-0.2 v 0 l 0.1,-0.2 v 0 l 0.1,-0.2 v 0 L 188,321 v 0 l 0.1,-0.2 1.8,-0.6 c 6.7,-0.2 13.4,0.5 19.9,2 6.8,1.6 13.4,4.2 19.6,7.6 3.5,2 8,0.7 10,-2.8 2,-3.5 0.7,-8 -2.8,-10 -7.4,-4.1 -15.3,-7.2 -23.4,-9.1 -7.8,-1.8 -15.7,-2.7 -23.7,-2.4 v -0.1 -0.1 0 l -0.1,-0.4 -0.1,-0.4 -0.1,-0.8 -0.1,-0.8 -0.2,-0.8 -0.2,-0.8 -0.2,-0.8 -0.2,-0.8 -0.2,-0.8 -0.3,-0.8 -0.3,-0.8 -0.3,-0.8 -0.2,-0.6 -0.1,-0.2 v 0 l -0.2,-0.4 -0.2,-0.4 v 0 l -0.3,-0.7 v 0 l -0.4,-0.7 -0.4,-0.7 -0.4,-0.7 v 0 l -0.3,-0.5 -0.1,-0.2 v 0 l -0.2,-0.3 -0.2,-0.3 v 0 l -0.4,-0.7 -0.4,-0.7 v 0 l -0.2,-0.3 -0.2,-0.3 v 0 l -0.2,-0.3 -0.2,-0.3 v 0 l -0.2,-0.3 -0.2,-0.3 v 0 l -0.2,-0.3 -0.2,-0.3 v 0 l -0.4,-0.5 -0.1,-0.1 v 0 l -0.1,-0.1 -0.3,-0.3 -0.1,-0.1 v 0 l -0.1,-0.1 -0.4,-0.4 v 0 l -0.5,-0.6 -0.6,-0.6 -0.6,-0.5 v 0 l -0.3,-0.3 -0.3,-0.3 -0.3,-0.3 -0.3,-0.3 -0.3,-0.3 -0.3,-0.3 v 0 l -0.3,-0.2 -0.3,-0.3 -0.4,-0.3 -0.5,-0.4 -0.1,-0.1 -0.3,-0.2 -0.3,-0.2 -0.3,-0.2 -0.7,-0.5 -0.7,-0.4 -0.7,-0.4 -0.3,-0.2 -0.3,-0.2 -0.3,-0.2 -0.3,-0.2 -0.7,-0.4 -0.7,-0.4 -0.7,-0.3 -0.7,-0.3 -0.4,-0.2 -0.8,-0.3 v 0 l -0.2,-0.1 -0.6,-0.2 -0.4,-0.1 -0.4,-0.1 v 0 l -0.4,-0.1 -0.4,-0.1 -0.7,-0.2 h -0.1 v 0 l -0.4,-0.1 -0.4,-0.1 -0.8,-0.2 -0.8,-0.2 -0.8,-0.2 -0.8,-0.2 -0.8,-0.2 -0.8,-0.1 -0.4,-0.1 -0.4,-0.1 v 0 z m -77,59.4 h 13.2 c 0.2,4.9 1.3,9.6 3.1,13.8 1.9,4.4 4.6,8.3 7.8,11.6 3.3,3.3 7.2,6 11.6,7.8 v -33.3 -22.9 c 0,-20.2 2.7,-37.7 -13.2,-53.6 C 94.9,248.1 83.7,243 71.4,243 c -12.3,0 -23.5,5 -31.6,13.2 -8.1,8.1 -13.2,19.3 -13.2,31.6 0,12.3 5,23.5 13.2,31.7 8.1,8.1 19.3,13.2 31.6,13.2 h 9.1 z"
   id="path134-4-6"
   style="clip-rule:evenodd;fill:#ffffff;fill-rule:evenodd" />
	<path
   class="st0"
   d="m 85.4,275.1 c 2.4,2.4 6.3,2.4 8.7,0 2.4,-2.4 2.4,-6.3 0,-8.7 -4,-4 -9,-6.8 -14.3,-8.2 -5.3,-1.4 -10.9,-1.5 -16.5,0 -5.5,1.5 -10.4,4.3 -14.2,8.2 -3.9,3.9 -6.8,8.7 -8.2,14.2 -0.9,3.3 1.1,6.7 4.3,7.5 3.3,0.9 6.7,-1.1 7.5,-4.3 0.9,-3.4 2.7,-6.3 5.1,-8.7 2.4,-2.4 5.4,-4.1 8.7,-5 3.3,-0.9 6.8,-0.9 10.1,0 3.4,0.9 6.4,2.6 8.8,5"
   id="path136-1-6"
   style="clip-rule:evenodd;fill:#ffffff;fill-rule:evenodd" />
	<path
   class="st0"
   d="m 190.9,397.4 c 1.7,-2.9 5.5,-4 8.4,-2.3 2.9,1.7 4,5.5 2.3,8.4 -2.9,4.9 -6.9,8.9 -11.6,11.6 -4.7,2.7 -10.2,4.2 -15.9,4.2 -5.7,0 -11.1,-1.5 -15.9,-4.2 -4.7,-2.7 -8.8,-6.7 -11.6,-11.6 -1.7,-2.9 -0.7,-6.7 2.2,-8.4 2.9,-1.7 6.7,-0.7 8.4,2.2 1.7,3 4.2,5.4 7.1,7.1 2.9,1.7 6.3,2.6 9.7,2.6 3.5,0 6.8,-0.9 9.7,-2.6 2.9,-1.6 5.4,-4 7.2,-7"
   id="path138-3-7"
   style="clip-rule:evenodd;fill:#ffffff;fill-rule:evenodd" />
	<path
   class="st1"
   d="m 207.7,269 v -43.8 -43.8 l -37.9,-21.9 v 0 l -38,-21.9 -38,21.9 -37.8,21.8 v 36.5 1.6 l -1.6,0.4 c -2.8,0.7 -5.6,1.6 -8.3,2.6 -2.7,1 -5.3,2.3 -7.9,3.6 l -3.1,1.7 v -3.5 -48.9 c 0,-2.1 0.6,-4 1.7,-5.6 1.1,-1.6 2.6,-3 4.3,-3.8 l 42.4,-24.5 37.9,-21.9 V 25.9 c 0,-2.9 1.2,-5.5 3,-7.4 1.9,-1.9 4.5,-3.1 7.4,-3.1 2.9,0 5.5,1.2 7.4,3.1 1.9,1.9 3,4.5 3,7.4 v 93.6 l 37.9,21.9 v 0 l 38,21.9 75.8,-43.8 V 75.7 c 0,-2.9 1.2,-5.5 3.1,-7.4 1.9,-1.9 4.5,-3 7.4,-3 2.9,0 5.5,1.2 7.4,3 1.9,1.9 3,4.5 3,7.4 v 43.8 l 81,46.8 c 2.5,1.4 4.2,3.7 4.8,6.3 0.7,2.6 0.4,5.4 -1,7.9 -1.4,2.5 -3.7,4.2 -6.3,4.8 -2.5,0.7 -5.4,0.4 -7.9,-1 l -81.1,-46.8 -75.8,43.8 v 43.8 43.9 l 37.9,21.9 v 0 l 38,21.9 81.1,-46.8 c 2.5,-1.4 5.3,-1.7 7.9,-1 2.6,0.7 4.9,2.4 6.3,4.8 1.4,2.5 1.7,5.3 1,7.9 -0.7,2.6 -2.4,4.9 -4.8,6.3 l -81,46.8 v 43.8 43.8 l 75.8,43.8 75.8,-43.8 v -93.6 c 0,-2.9 1.2,-5.5 3,-7.4 1.9,-1.9 4.5,-3 7.4,-3 2.9,0 5.5,1.2 7.4,3 1.9,1.9 3,4.5 3,7.4 v 99.6 2.1 H 487 c -0.2,1.1 -0.6,2.1 -1.2,3.1 -0.9,1.5 -2.2,2.8 -3.8,3.8 v 0 L 395.9,483 v 0 c -1.6,0.9 -3.4,1.4 -5.2,1.5 v 0 c -1.8,0 -3.6,-0.4 -5.2,-1.4 l -81.1,-46.8 -38,21.9 -43.1,24.9 v 0 c -1.6,0.9 -3.5,1.4 -5.2,1.4 v 0 c -1.8,0 -3.6,-0.5 -5.2,-1.5 v 0 l -31,-17.9 -5.5,-3.2 6.3,-0.7 c 3.8,-0.4 7.5,-1.1 11.1,-2.2 3.6,-1 7.2,-2.3 10.6,-3.9 l 1,-0.4 0.9,0.5 11.9,6.9 38,-21.9 v 0 l 37.9,-21.9 v -43.8 -43.8 l -37.9,-21.9 v 0 l -38,-21.9 -12.8,7.4 -0.6,0.3 -0.7,-0.1 c -0.8,-0.1 -1.5,-0.2 -2.1,-0.2 v 0 c -0.6,-0.1 -1.3,-0.1 -2.1,-0.2 l -1.3,-0.1 -0.5,-1.2 -0.2,-0.5 -0.3,-0.7 v 0 l -0.1,-0.3 v 0 l -0.2,-0.4 v 0 l -0.2,-0.6 -0.4,-0.9 -0.5,-1 -0.5,-0.9 v 0 l -0.5,-0.9 v 0 l -0.4,-0.6 v 0 l -0.1,-0.3 v 0 l -0.3,-0.4 v 0 l -0.3,-0.5 v 0 l -0.5,-0.8 -0.6,-1 v 0 l -0.3,-0.4 v 0 l -0.3,-0.4 -0.4,-0.5 v -0.4 l -0.2,-0.3 -1.7,-1.9 2.2,-1.3 z"
   id="path140-7-8"
   style="clip-rule:evenodd;fill:#d8ac28;fill-rule:evenodd" />
</g></g></svg>
